:SAMPLES-PER-SECOND 30
:FULLY-SPECIFIED
:DEGREES
770
root  -21.4272 38.6687 -2.16673 168.134 -84.1884 -176.08
RightUpLeg  7.76912 0.369158 -3.08474
RightLeg  22.5236 6.2561 2.62857
RightFoot  -20.564 -0.0663529 0.90234
RightToes  -1.33073e-015 0 -3.6325e-017
Spine  12.957 -0.517454 10.3329
Spine1  8.33732 2.38312 -7.6065
HEad  -24.9745 1.52555 -5.65714
LeftShoulder1  0.505273 2.08948 -29.6325
LeftArm  3.86841 8.05457 -42.2015
LeftForeArm  14.8762 -23.4875 -4.25552
LeftHand  -0.0425655 4.09123 2.03482
RightShoulder  -0.067193 -3.69385 24.7209
RightArm  26.7985 23.3633 59.3583
RightForeArm  -0.24007 13.7541 8.46332
RightHand  -0.533638 5.02774 -6.23728
LeftUpLeg  -15.5608 6.13588 5.04227
LeftLeg  2.32224 -3.40401 0.163436
LeftFoot  2.11114 0.407901 -3.62547
LeftToes  -1.03319e-009 7.52634e-011 -3.26162e-012
771
root  -20.3043 38.8521 -2.38614 168.575 -85.0497 -175.702
RightUpLeg  5.13051 -1.11358 -2.83082
RightLeg  22.4075 6.37229 2.6652
RightFoot  -18.8122 -0.118097 0.141011
RightToes  -1.33073e-015 0 -3.6325e-017
Spine  13.0553 -0.651349 9.21618
Spine1  7.62766 1.72027 -6.16807
HEad  -24.6216 1.98955 -4.72367
LeftShoulder1  0.57786 1.85531 -28.9268
LeftArm  4.95089 8.28911 -43.2579
LeftForeArm  15.9108 -23.0498 -4.1883
LeftHand  -0.0471336 3.06907 1.57842
RightShoulder  -0.071904 -3.70849 24.797
RightArm  28.2292 24.0272 59.2615
RightForeArm  1.06093 13.5714 8.74156
RightHand  -0.478426 4.84741 -5.71681
LeftUpLeg  -14.7881 6.19307 5.12117
LeftLeg  -2.15326 -0.624412 0.110412
LeftFoot  -0.915003 0.539816 -5.8289
LeftToes  -1.03319e-009 7.52634e-011 -3.26162e-012
772
root  -19.2707 39.0727 -2.52392 169.57 -86.388 -176.391
RightUpLeg  3.68884 -2.39929 -2.75079
RightLeg  21.3347 6.12336 2.42304
RightFoot  -16.7035 -0.124936 -0.243685
RightToes  -1.33073e-015 0 -3.6325e-017
Spine  13.4298 -0.951669 8.33516
Spine1  6.97896 1.03122 -5.06333
HEad  -23.9019 1.52696 -3.88312
LeftShoulder1  0.585909 1.83332 -28.9591
LeftArm  6.80626 7.80271 -43.3972
LeftForeArm  16.2691 -21.9614 -4.2838
LeftHand  -0.039863 2.54959 1.05111
RightShoulder  -0.0820981 -3.74147 24.7762
RightArm  27.7809 23.0789 58.6699
RightForeArm  2.20382 13.5294 8.65571
RightHand  -0.473674 4.9639 -5.60375
LeftUpLeg  -14.4951 6.4638 4.81605
LeftLeg  -1.92506 4.42838 -0.569134
LeftFoot  -1.36179 0.68178 -7.6883
LeftToes  -1.03319e-009 7.52634e-011 -3.26162e-012
773
root  -18.2996 39.3022 -2.60237 -176.345 -88.1806 169.871
RightUpLeg  2.52357 -3.87121 -3.13778
RightLeg  19.9751 5.70054 2.0551
RightFoot  -14.6758 -0.107311 -0.263687
RightToes  -1.33073e-015 0 -3.6325e-017
Spine  13.6393 -1.29613 7.67707
Spine1  6.4253 0.464872 -4.4922
HEad  -23.4844 1.2734 -3.59111
LeftShoulder1  0.616681 1.7274 -28.6039
LeftArm  7.11758 7.36601 -43.7838
LeftForeArm  18.3956 -20.891 -4.50112
LeftHand  -0.0154589 2.9076 0.00736724
RightShoulder  -0.102273 -3.80319 25.0634
RightArm  26.158 20.8424 57.3472
RightForeArm  1.92838 13.9088 8.22181
RightHand  -0.464058 4.74516 -5.60048
LeftUpLeg  -14.7368 6.10904 3.85986
LeftLeg  1.73997 6.40373 -0.498133
LeftFoot  -1.95267 0.442943 -5.24866
LeftToes  -1.03319e-009 7.52634e-011 -3.26162e-012
774
root  -17.4483 39.4862 -2.62254 -125.895 -89.0054 119.523
RightUpLeg  1.81223 -5.42817 -3.84025
RightLeg  18.569 6.01842 1.87047
RightFoot  -12.8492 -0.0894349 -0.223078
RightToes  -1.33073e-015 0 -3.6325e-017
Spine  13.247 -1.29683 7.8433
Spine1  6.68331 0.584113 -4.88484
HEad  -22.5717 0.202299 -2.5598
LeftShoulder1  0.651974 1.60171 -28.1447
LeftArm  6.9299 7.00229 -44.226
LeftForeArm  19.539 -19.9185 -4.86474
LeftHand  -0.0195132 2.97294 0.20107
RightShoulder  -0.135894 -3.90714 25.3349
RightArm  23.1581 18.0291 55.7354
RightForeArm  1.4002 13.4412 8.03647
RightHand  -0.524133 5.04165 -6.1276
LeftUpLeg  -14.128 6.48813 2.96324
LeftLeg  6.21335 5.52124 -0.397974
LeftFoot  -3.5381 0.334817 -4.60178
LeftToes  -1.03319e-009 7.52634e-011 -3.26162e-012
775
root  -16.6149 39.6247 -2.58845 -65.707 -88.7439 59.4386
RightUpLeg  1.05525 -7.01541 -4.27611
RightLeg  17.3001 6.5667 1.77667
RightFoot  -11.0011 -0.0740132 -0.278046
RightToes  -1.33073e-015 0 -3.6325e-017
Spine  12.9686 -1.24755 8.31879
Spine1  6.70271 0.722637 -4.95055
HEad  -21.9513 -0.264914 -3.39246
LeftShoulder1  0.609694 1.74925 -28.6405
LeftArm  6.27957 6.73997 -43.7213
LeftForeArm  19.8388 -19.1393 -5.18896
LeftHand  -0.0104682 2.4052 -0.0851528
RightShoulder  -0.120628 -3.85949 25.2697
RightArm  20.8508 15.0136 54.1017
RightForeArm  1.25027 12.4888 8.11497
RightHand  -0.537188 5.13489 -6.22564
LeftUpLeg  -13.2738 6.65603 2.32553
LeftLeg  10.9973 2.16873 0.276524
LeftFoot  -5.192 0.251816 -4.1068
LeftToes  -1.03319e-009 7.52634e-011 -3.26162e-012
776
root  -15.8017 39.6806 -2.50507 -50.8512 -88.0158 44.6681
RightUpLeg  0.0262521 -8.18195 -4.83387
RightLeg  16.6736 7.1384 1.85729
RightFoot  -9.74728 -0.0650143 -0.0650728
RightToes  -1.33073e-015 0 -3.6325e-017
Spine  12.924 -1.10095 8.57826
Spine1  6.45339 0.951592 -4.93523
HEad  -21.2517 -0.626976 -4.35064
LeftShoulder1  0.532399 1.98841 -29.0069
LeftArm  6.31585 7.67709 -43.2203
LeftForeArm  18.5504 -19.9566 -4.84169
LeftHand  -0.0191878 4.19163 -0.569332
RightShoulder  -0.159324 -3.97677 25.6097
RightArm  19.2838 12.6942 52.4871
RightForeArm  3.46298 10.4722 8.59199
RightHand  -0.465748 4.33021 -5.81704
LeftUpLeg  -11.9868 4.96912 2.29891
LeftLeg  15.8337 1.19077 0.747345
LeftFoot  -6.78251 0.180728 -3.50658
LeftToes  -1.03319e-009 7.52634e-011 -3.26162e-012
777
root  -15.0011 39.6992 -2.38585 -52.4606 -87.6521 46.3339
RightUpLeg  -1.20154 -8.59375 -5.2866
RightLeg  16.3841 7.59084 1.9601
RightFoot  -8.5451 -0.0617925 0.149909
RightToes  -1.33073e-015 0 -3.6325e-017
Spine  12.3785 -0.89782 9.06627
Spine1  7.07065 1.42914 -5.56654
HEad  -20.6088 -1.10842 -3.9173
LeftShoulder1  0.503191 2.06414 -28.8342
LeftArm  4.40154 8.52405 -43.2314
LeftForeArm  18.0265 -20.0167 -4.73211
LeftHand  -0.0309421 4.87269 -0.955097
RightShoulder  -0.195466 -4.0853 25.8882
RightArm  17.8708 10.9774 51.3024
RightForeArm  7.4192 7.72613 9.02932
RightHand  -0.344432 3.47332 -4.77161
LeftUpLeg  -10.0224 2.91909 2.72828
LeftLeg  19.8901 1.57407 0.956393
LeftFoot  -8.00984 0.133695 -2.97662
LeftToes  -1.03319e-009 7.52634e-011 -3.26162e-012
778
root  -14.1999 39.6812 -2.23648 -46.4949 -87.4018 40.5275
RightUpLeg  -2.64347 -8.98296 -5.45579
RightLeg  16.3032 7.75033 2.07286
RightFoot  -7.30838 -0.0665616 0.487571
RightToes  -1.33073e-015 0 -3.6325e-017
Spine  11.8194 -0.717581 9.28152
Spine1  7.45392 1.6679 -5.4774
HEad  -20.4718 0.0769224 -5.24454
LeftShoulder1  0.477555 2.15694 -29.347
LeftArm  3.19803 9.45998 -42.4995
LeftForeArm  16.2046 -19.7408 -4.83664
LeftHand  -0.0390186 3.25957 1.39464
RightShoulder  -0.198334 -4.09517 25.8184
RightArm  17.3515 9.09226 50.4379
RightForeArm  9.94742 5.14337 9.27188
RightHand  -0.329203 2.61026 -4.98453
LeftUpLeg  -7.79229 1.95098 3.49517
LeftLeg  22.9737 1.36365 0.961327
LeftFoot  -9.25976 0.114591 -3.2596
LeftToes  -1.03319e-009 7.52634e-011 -3.26162e-012
779
root  -13.3653 39.6105 -2.05102 -35.5547 -86.9512 29.5684
RightUpLeg  -4.03021 -9.56908 -5.61281
RightLeg  16.5382 7.76648 2.27265
RightFoot  -6.26993 -0.0803356 0.847035
RightToes  -1.33073e-015 0 -3.6325e-017
Spine  11.8513 -0.902369 9.32517
Spine1  7.30672 1.49414 -5.23042
HEad  -19.9311 1.13194 -5.27848
LeftShoulder1  0.437734 2.27399 -29.4816
LeftArm  1.61828 10.0444 -41.973
LeftForeArm  16.6256 -19.0188 -4.99407
LeftHand  -0.0320474 3.89067 0.931421
RightShoulder  -0.237772 -4.20965 26.2153
RightArm  17.397 7.44444 49.2595
RightForeArm  12.3891 3.05132 9.31552
RightHand  -0.249771 1.17406 -4.54388
LeftUpLeg  -5.44172 1.50747 4.64027
LeftLeg  25.6893 1.08 0.901392
LeftFoot  -10.6229 0.0841715 -3.19945
LeftToes  -1.03319e-009 7.52634e-011 -3.26162e-012
780
root  -12.4957 39.5279 -1.84867 -24.6438 -85.7802 18.6319
RightUpLeg  -5.30093 -10.1691 -5.93425
RightLeg  16.6562 7.22791 2.27846
RightFoot  -5.29355 -0.112923 1.4585
RightToes  -1.33073e-015 0 -3.6325e-017
Spine  11.6533 -1.18154 8.68715
Spine1  7.62437 1.02364 -4.54451
HEad  -20.3283 1.70698 -5.40676
LeftShoulder1  0.454932 2.21384 -29.1484
LeftArm  -0.503279 9.84064 -42.0689
LeftForeArm  18.2722 -17.0766 -5.55289
LeftHand  -0.0283134 4.14376 0.446416
RightShoulder  -0.256322 -4.26447 26.3054
RightArm  16.2777 5.17259 48.1677
RightForeArm  13.5145 2.38285 8.83399
RightHand  -0.229825 1.11884 -4.22127
LeftUpLeg  -3.13855 0.748424 5.78244
LeftLeg  27.5895 0.972469 0.88745
LeftFoot  -11.2611 0.0693633 -2.58426
LeftToes  -1.03319e-009 7.52634e-011 -3.26162e-012
